<svg xmlns="http://www.w3.org/2000/svg" viewBox="0 0 128 128">
  <path fill="#3DDC84" d="M78.2 24.2l8.8-15.2c.5-.9.2-2-.7-2.5s-2-.2-2.5.7l-9 15.5c-6.8-3.1-14.4-4.8-22.4-4.8s-15.7 1.7-22.4 4.8l-9-15.5c-.5-.9-1.6-1.2-2.5-.7s-1.2 1.6-.7 2.5l8.8 15.2C12.3 33.7 2 50.2 2 69h102c0-18.8-10.3-35.3-25.8-44.8zM32 54c-3.3 0-6-2.7-6-6s2.7-6 6-6 6 2.7 6 6-2.7 6-6 6zm40 0c-3.3 0-6-2.7-6-6s2.7-6 6-6 6 2.7 6 6-2.7 6-6 6z"/>
  <path fill="#3DDC84" d="M2 69v36c0 6.6 5.4 12 12 12h6V81H2v-12zm84 48h6c6.6 0 12-5.4 12-12V69H86v48z"/>
  <rect fill="#3DDC84" x="20" y="69" width="66" height="53"/>
</svg>