<svg xmlns="http://www.w3.org/2000/svg" viewBox="0 0 128 128">
  <path fill="#fff" d="M97.9 47.8c-.1 0-11.1 6.4-11.1 19.6 0 15.2 13.4 20.6 13.6 20.7-.1.3-2.1 7.4-7 14.7-4.2 6.3-8.6 12.6-15.4 12.7-6.7.1-8.8-4-16.5-4-7.6 0-10.1 3.9-16.4 4.1-6.6.2-11.6-6.9-15.9-13.2-8.7-12.9-15.4-36.4-6.4-52.3 4.4-7.9 12.3-12.9 20.9-13.1 6.5-.1 12.7 4.4 16.7 4.4 4 0 11.5-5.4 19.4-4.6 3.3.1 12.6 1.3 18.5 10.1-.5.3-11.1 6.5-10.9 19.3l-.1-.1zM82.4 20.1c3.5-4.2 5.9-10 5.2-15.8-5 .2-11.1 3.4-14.7 7.6-3.2 3.7-6 9.6-5.3 15.3 5.6.4 11.3-2.9 14.8-7.1z"/>
</svg>