<svg xmlns="http://www.w3.org/2000/svg" viewBox="0 0 128 128">
  <path fill="#F7A80D" d="M38.1 67.3c0 2.1.2 3.8.6 5.1.5 1.3 1 2.7 1.8 4.2.3.5.4.9.4 1.4 0 .6-.4 1.2-1.1 1.8l-3.7 2.5c-.5.4-1.1.5-1.6.5-.6 0-1.2-.3-1.8-.9-1-1-1.8-2.1-2.5-3.2-.7-1.2-1.4-2.5-2.1-4-5.3 6.3-12 9.4-20 9.4-5.7 0-10.3-1.6-13.6-4.9-3.3-3.3-5-7.7-5-13.1 0-5.8 2-10.5 6.1-14.1 4.1-3.6 9.5-5.4 16.4-5.4 2.3 0 4.6.2 7 .5s5 .9 7.5 1.5v-5c0-5.5-1.2-9.4-3.5-11.7-2.3-2.3-6.2-3.4-11.7-3.4-2.5 0-5.1.3-7.8.9-2.7.6-5.3 1.4-7.8 2.4-.9.4-1.6.6-2 .7-.4.1-.7.2-1 .2-.9 0-1.3-.6-1.3-1.9v-2.9c0-1 .1-1.7.4-2.2s.8-.9 1.6-1.3c2.5-1.3 5.5-2.4 9-3.2 3.5-.9 7.2-1.3 11-1.3 8.4 0 14.5 1.9 18.5 5.7 3.9 3.8 5.9 9.6 5.9 17.3v22.8h.1zM18 73.8c2.2 0 4.5-.4 6.9-1.2s4.6-2.1 6.5-4c1.2-1.2 2-2.5 2.6-4 .5-1.5.8-3.3.8-5.5v-2.6c-1.9-.5-3.9-.9-6-1.2-2.1-.3-4.2-.4-6.3-.4-4.5 0-7.8.9-10 2.7-2.2 1.8-3.3 4.4-3.3 7.7 0 3.1.8 5.4 2.5 7 1.6 1.7 4 2.5 6.3 2.5zm45.4 6c-1.2 0-2-.2-2.6-.6-.6-.4-1.1-1.2-1.5-2.4L44.5 26.5c-.4-1.2-.6-2-.6-2.4 0-1 .5-1.5 1.5-1.5h5.8c1.2 0 2.1.2 2.6.6.6.4 1 1.2 1.4 2.4l10.7 42.4 10-42.4c.4-1.2.8-2 1.4-2.4.6-.4 1.5-.6 2.7-.6h4.7c1.2 0 2.1.2 2.7.6.6.4 1.1 1.2 1.4 2.4l10.1 42.9 11-42.9c.4-1.2.9-2 1.4-2.4.6-.4 1.5-.6 2.6-.6h5.5c1 0 1.6.5 1.6 1.5 0 .3 0 .6-.1.9-.1.4-.2.9-.5 1.5L101.2 77c-.4 1.2-.9 2-1.5 2.4-.6.4-1.4.6-2.6.6h-5c-1.2 0-2.1-.2-2.7-.6-.6-.4-1.1-1.2-1.4-2.5l-9.9-41.3-9.8 41.2c-.4 1.3-.8 2.1-1.4 2.5-.6.4-1.5.7-2.7.7h-5.8zM118.8 84.1c-.4-.4-.7-.6-1-1.1-.3-.4-.4-1-.4-1.8V38.1c0-.9.2-1.5.5-1.9.4-.4.9-.8 1.6-1.1l.7-.3c2.3-.9 4.7-1.6 7.2-2.1.9-.2 1.8-.3 2.7-.5z"/>
  <path fill="#F7A80D" d="M120.9 93.5c-14.9 11-36.5 16.8-55.1 16.8-26.1 0-49.6-9.7-67.4-25.8-1.4-1.3-.1-3 1.5-2 19.2 11.2 43 17.9 67.5 17.9 16.6 0 34.8-3.4 51.5-10.6 2.5-1.2 4.7 1.6 2 3.7z"/>
  <path fill="#F7A80D" d="M126.4 87c-1.9-2.5-12.7-1.2-17.5-.6-1.5.2-1.7-1.1-.4-2 8.6-6 22.6-4.3 24.3-2.3 1.7 2.1-.4 16.3-8.5 23.1-1.2 1-2.4.5-1.9-.9 1.8-4.6 6-14.9 4-17.3z"/>
</svg>