<svg xmlns="http://www.w3.org/2000/svg" viewBox="0 0 128 128">
  <circle fill="#4285F4" cx="64" cy="64" r="56"/>
  <path fill="#fff" d="M64 24c-22.1 0-40 17.9-40 40s17.9 40 40 40 40-17.9 40-40-17.9-40-40-40zm0 72c-17.7 0-32-14.3-32-32s14.3-32 32-32 32 14.3 32 32-14.3 32-32 32z"/>
  <path fill="#fff" d="M64 40c-13.3 0-24 10.7-24 24s10.7 24 24 24 24-10.7 24-24-10.7-24-24-24zm0 40c-8.8 0-16-7.2-16-16s7.2-16 16-16 16 7.2 16 16-7.2 16-16 16z"/>
  <circle fill="#4285F4" cx="64" cy="64" r="8"/>
  <path fill="#fff" d="M84 44l8-8 8 8-8 8zM28 60h16v8H28zM84 80l8-8 8 8-8 8z"/>
  <path fill="#34A853" d="M64 48l-12 12 12 12 12-12z"/>
</svg>