<svg xmlns="http://www.w3.org/2000/svg" viewBox="0 0 128 128">
  <path fill="#00599C" d="M117.5 33.5l.3-.2c-.6-1.1-1.5-2.1-2.4-2.6L67.1 2.9c-.8-.5-1.9-.7-3.1-.7-1.2 0-2.3.3-3.1.7l-48 27.9c-1.7 1-2.9 3.5-2.9 5.4v55.7c0 1.1.2 2.3.9 3.4l-.2.1c.5.8 1.2 1.5 1.9 1.9l48.2 27.9c.8.5 1.9.7 3.1.7 1.2 0 2.3-.3 3.1-.7l48-27.9c1.7-1 2.9-3.5 2.9-5.4V36.1c.1-.8 0-1.7-.4-2.6z"/>
  <path fill="#fff" d="M64 88c-12.9 0-24-10.1-24-24 0-12.9 10.1-24 24-24 9.8 0 18.7 6 22.5 14.4l-13.5 7.8C71.5 58.3 68 56 64 56c-4.4 0-8 3.6-8 8s3.6 8 8 8c4 0 7.5-2.3 9-5.8l13.5 7.8C82.7 82 73.8 88 64 88z"/>
  <path fill="#fff" d="M96 60h4v8h-4zm8 2h-4v4h-4v-4h-4v-4h4v-4h4v4h4zm12 0h-4v4h-4v-4h-4v-4h4v-4h4v4h4z"/>
</svg>