<svg xmlns="http://www.w3.org/2000/svg" viewBox="0 0 128 128">
  <g fill="#fff">
    <path fill-rule="evenodd" clip-rule="evenodd" d="M64 5.1C29.5 5.1 1.5 33.1 1.5 67.6c0 27.6 17.9 51 42.7 59.2 3.1.6 4.3-1.3 4.3-3 0-1.5 0-5.4-.1-10.6-17.4 3.8-21.1-8.4-21.1-8.4-2.8-7.2-6.9-9.1-6.9-9.1-5.7-3.9.4-3.8.4-3.8 6.2.4 9.5 6.4 9.5 6.4 5.5 9.5 14.5 6.8 18 5.2.6-4 2.2-6.8 3.9-8.3-13.9-1.6-28.5-6.9-28.5-31 0-6.8 2.4-12.4 6.4-16.8-.6-1.6-2.8-8 .6-16.6 0 0 5.2-1.7 17.1 6.4 5-1.4 10.3-2.1 15.6-2.1 5.3 0 10.6.7 15.6 2.1 11.9-8.1 17.1-6.4 17.1-6.4 3.4 8.6 1.3 15 .6 16.6 4 4.4 6.4 10 6.4 16.8 0 24.1-14.7 29.4-28.7 31 2.3 1.9 4.3 5.7 4.3 11.5 0 8.3-.1 15-.1 17 0 1.7 1.1 3.6 4.3 3 24.9-8.3 42.8-31.7 42.8-59.3 0-34.5-28-62.5-62.5-62.5z"/>
  </g>
</svg>