<svg xmlns="http://www.w3.org/2000/svg" viewBox="0 0 128 128">
  <path fill="#F9AB00" d="M93.3 46.4c-12.3-6.7-27.5-6.4-39.5.7L38 36.4c17.4-12.5 41.5-13.2 59.6-1.1l-4.3 11.1z"/>
  <path fill="#E8710A" d="M38 36.4l15.8 10.7c-9 5.2-15.3 14-17 24.3L22.4 60.2C25 50.3 30.4 41.8 38 36.4z"/>
  <path fill="#F9AB00" d="M36.8 71.4c0 15.2 12.3 27.5 27.5 27.5 10.7 0 20-6.1 24.5-15l14.4 10.7c-7.6 14.3-22.5 24-39.9 24-24.7 0-44.9-20.1-44.9-44.9 0-9.4 2.9-18.2 7.9-25.5l14.4 11.2c-2.6 5-4 10.7-4 16.8l.1 1.2z"/>
  <path fill="#E8710A" d="M64.3 98.9c10.7 0 20-6.1 24.5-15l14.4 10.7C95.6 109 80.7 118.6 63.3 118.6c-24.7 0-44.9-20.1-44.9-44.9 0-9.4 2.9-18.2 7.9-25.5l14.4 11.2c-2.6 5-3.9 10.6-3.9 16.5 0 15.2 12.3 27.5 27.5 27.5-.1 0-.1-4.5 0-4.5z"/>
</svg>