<svg xmlns="http://www.w3.org/2000/svg" viewBox="0 0 128 128">
  <path fill="#0074BD" d="M47.6 98.6s-4.2 2.5 3 3.3c8.7 1 13.2.9 22.8-1 0 0 2.5 1.6 6 2.9-21.4 9.2-48.5-.5-31.8-5.2zM44.3 85.8s-4.7 3.5 2.5 4.2c9.3 1 16.7 1.1 29.4-1.5 0 0 1.7 1.8 4.5 2.7-25.9 7.6-54.8.6-36.4-5.4z"/>
  <path fill="#EA2D2E" d="M69.4 61.8c5.2 6-1.4 11.5-1.4 11.5s13.3-6.9 7.2-15.5c-5.7-8-10-12 13.6-25.7 0 0-37.1 9.3-19.4 29.7z"/>
  <path fill="#0074BD" d="M102.3 108.5s3.1 2.6-3.4 4.6c-12.5 3.7-52 4.8-62.9.1-3.9-1.7 3.4-4 5.7-4.5 2.4-.5 3.7-.4 3.7-.4-4.3-3-27.8 5.9-11.9 8.5 43.2 7 78.8-3.1 68.8-8.2zM50.4 71s-19.7 4.7-7 6.4c5.4.7 16.1.5 26.1-.3 8.2-.6 16.4-2 16.4-2s-2.9 1.2-5 2.7c-20.1 5.3-58.9 2.8-47.7-2.6 9.4-4.5 17.2-4.2 17.2-4.2zM92.7 91c20.4-10.6 11-20.8 4.4-19.4-1.6.3-2.4.6-2.4.6s.6-1 1.8-1.4c13.3-4.7 23.5 13.8-4.2 21.1 0 0 .3-.3.4-.9z"/>
  <path fill="#EA2D2E" d="M79.9 1s11.3 11.3-10.7 28.7c-17.6 14-4 22 0 31.1-10.3-9.3-17.8-17.4-12.8-25 7.4-11.2 27.9-16.6 23.5-34.8z"/>
  <path fill="#0074BD" d="M52.6 123.5c19.6 1.3 49.7-.7 50.4-10.1 0 0-1.4 3.5-16.2 6.3-16.7 3.2-37.4 2.8-49.6.8 0 0 2.5 2.1 15.4 3z"/>
</svg>