<svg xmlns="http://www.w3.org/2000/svg" viewBox="0 0 128 128">
  <path fill="#999" d="M64 8C33.1 8 8 33.1 8 64s25.1 56 56 56 56-25.1 56-56S94.9 8 64 8z"/>
  <path fill="#fff" d="M43.1 60.5c-.3-.8-.7-1.6-1.2-2.3-.5-.7-1.2-1.3-2-1.8-.8-.5-1.8-.7-3-.7-1.6 0-2.9.4-3.9 1.3s-1.5 2.1-1.5 3.7c0 1.6.5 2.8 1.5 3.7 1 .9 2.3 1.3 3.9 1.3 1.2 0 2.2-.3 3-.8.8-.5 1.4-1.1 1.9-1.8s.9-1.5 1.2-2.3c.3-.8.5-1.6.6-2.3h-5.5v-3.3h10.2v3.3c0 1.5-.2 3-.7 4.5-.5 1.5-1.2 2.8-2.1 4s-2.1 2.2-3.5 2.9-3 1.1-4.9 1.1c-2 0-3.8-.4-5.4-1.2-1.6-.8-2.9-1.9-4-3.3-1.1-1.4-1.9-3-2.5-4.8-.6-1.8-.9-3.8-.9-5.8 0-2 .3-4 .9-5.8.6-1.8 1.4-3.4 2.5-4.8 1.1-1.4 2.4-2.5 4-3.3 1.6-.8 3.4-1.2 5.4-1.2 2.5 0 4.6.6 6.4 1.7s3.2 2.8 4.2 4.9l-4.6 2z"/>
  <path fill="#fff" d="M74.1 70.5h-5v-7.8c0-.8-.2-1.4-.5-1.9-.3-.5-.9-.7-1.7-.7-1 0-1.7.3-2.2.9-.5.6-.7 1.6-.7 2.8v6.7h-5V45.8h5v11.4c.6-.8 1.4-1.5 2.4-2 1-.5 2-.7 3.2-.7 1 0 1.9.1 2.6.4.7.3 1.3.7 1.8 1.3.5.5.8 1.2 1 2 .2.8.3 1.6.3 2.6v9.7h-.2z"/>
  <path fill="#fff" d="M87.5 70.9c-1.2 0-2.3-.2-3.3-.5-1-.4-1.9-.9-2.7-1.5-.8-.7-1.4-1.4-1.8-2.3-.4-.9-.6-1.9-.6-3 0-1.1.2-2.1.6-3 .4-.9 1-1.7 1.8-2.3.8-.6 1.7-1.1 2.7-1.5 1-.4 2.1-.5 3.3-.5 1.2 0 2.3.2 3.3.5 1 .4 1.9.9 2.7 1.5.8.6 1.4 1.4 1.8 2.3.4.9.6 1.9.6 3 0 1.1-.2 2.1-.6 3-.4.9-1 1.7-1.8 2.3-.8.6-1.7 1.1-2.7 1.5-1 .3-2.1.5-3.3.5zm0-3.8c.9 0 1.6-.3 2.1-.8.5-.5.8-1.3.8-2.2 0-1-.3-1.7-.8-2.2s-1.2-.8-2.1-.8c-.9 0-1.6.3-2.1.8s-.8 1.3-.8 2.2c0 .9.3 1.7.8 2.2.5.5 1.2.8 2.1.8z"/>
  <path fill="#fff" d="M97.8 66.7c.2.7.5 1.2 1.1 1.6.6.4 1.2.5 2 .5.5 0 1-.1 1.4-.2.4-.2.7-.4.9-.7.2-.3.3-.7.3-1 0-.4-.2-.8-.6-1-.4-.2-.9-.4-1.6-.5l-2.1-.4c-1.5-.3-2.7-.8-3.5-1.6-.8-.8-1.2-1.8-1.2-3 0-1 .3-1.8.8-2.6.5-.7 1.2-1.3 2.2-1.8.9-.4 2-.6 3.3-.6 1.3 0 2.4.2 3.4.6.9.4 1.7 1 2.2 1.8.6.8.9 1.7.9 2.7h-4.6c-.1-.6-.4-1.1-.9-1.5-.5-.4-1.1-.5-1.9-.5-.5 0-.9.1-1.3.2-.4.2-.6.4-.8.7-.2.3-.3.6-.3.9 0 .4.2.7.5.9.3.2.8.4 1.4.5l2.2.4c1.6.3 2.8.8 3.7 1.6.9.8 1.3 1.9 1.3 3.2 0 1-.3 1.9-.8 2.7-.5.8-1.3 1.4-2.3 1.8-1 .5-2.1.7-3.4.7-2.1 0-3.7-.5-4.9-1.4-1.2-1-1.9-2.3-2.1-4l4.7.1z"/>
</svg>