<svg xmlns="http://www.w3.org/2000/svg" viewBox="0 0 128 128">
  <path fill="#83CD29" d="M112.8 80.6l-24.5 14.1c-1.9 1.1-4.2 1.1-6.1 0l-9.6-5.5c-.9-.5-1.9-.4-2.7 0l-.7.4c-.8.5-.8 1.4 0 1.9l9.5 5.5c2.9 1.7 6.5 1.7 9.4 0l23.5-13.6c.9-.5 1.5-1.4 1.5-2.4V50.8c0-1-.6-1.9-1.5-2.4l-23.5-13.6c-2.9-1.7-6.5-1.7-9.4 0L55.2 48.4c-.9.5-1.5 1.4-1.5 2.4V81c0 1 .6 1.9 1.5 2.4l6.9 4c3.3 1.7 4.5 1.7 6 1.7 4.9 0 7.7-3 7.7-8.2V51.5c0-.4-.3-.7-.7-.7h-3c-.4 0-.7.3-.7.7v29.4c0 2.3-2.4 4.6-6.3 2.6l-7.2-4.1c-.6-.3-.9-.9-.9-1.5V51.5c0-.6.3-1.2.9-1.5l23-13.3c.5-.3 1.2-.3 1.8 0l23 13.3c.6.3.9.9.9 1.5v26.6c0 .7-.4 1.3-1 1.7z"/>
  <path fill="#83CD29" d="M79 71.2c-7.2 0-8.7-1.8-9.3-5.2 0-.4-.4-.7-.8-.7h-3.1c-.4 0-.8.4-.8.8.5 5.5 3 12 14 12 8.6 0 13.5-3.4 13.5-9.3 0-5.9-4-7.5-12.3-8.6-8.4-1.1-9.2-1.7-9.2-3.7 0-1.6.7-3.8 7-3.8 5.6 0 7.7 1.2 8.5 5 .1.3.4.6.7.6h3.1c.2 0 .4-.1.6-.3.1-.2.2-.4.2-.6-.5-6.2-4.6-9.1-13.1-9.1-7.5 0-11.9 3.1-11.9 8.4 0 5.7 4.4 7.3 11.5 8 8.5.9 10 2.2 10 4 0 3.1-2.5 4.4-8.6 4.4z"/>
</svg>