<svg xmlns="http://www.w3.org/2000/svg" viewBox="0 0 128 128">
  <path fill="#00758f" d="M116.6 61.8c0-7.9-25.8-14.3-57.6-14.3S1.4 53.9 1.4 61.8v30.6c0 7.9 25.8 14.3 57.6 14.3s57.6-6.4 57.6-14.3V61.8z"/>
  <ellipse fill="#00758f" cx="59" cy="61.8" rx="57.6" ry="14.3"/>
  <ellipse fill="#00618a" cx="59" cy="61.8" rx="49.1" ry="10"/>
  <path fill="#006a8d" d="M59 71.8c-27.1 0-49.1-4.5-49.1-10S31.9 51.8 59 51.8s49.1 4.5 49.1 10-22 10-49.1 10z"/>
  <path fill="#00728d" d="M106.1 77.4c7.5-3.6 10.5-8 10.5-11.7v8.7c0 7.9-25.8 14.3-57.6 14.3S1.4 82.3 1.4 74.4v-8.7c0 3.7 3 8.1 10.5 11.7 9.7 4.6 26.1 7.6 47.1 7.6s37.4-3 47.1-7.6z"/>
  <g fill="#fff">
    <path d="M30.7 78.6c-3.2 0-5.8-.7-7.6-2.1-1.8-1.4-2.8-3.4-2.8-6h4.7c0 1.5.5 2.6 1.4 3.3.9.8 2.4 1.1 4.3 1.1 1.6 0 2.9-.3 3.7-.9.8-.6 1.3-1.4 1.3-2.5 0-1-.4-1.8-1.1-2.3-.8-.5-2.1-1-4.1-1.4-2.4-.5-4.3-1.3-5.6-2.3-1.3-1-2-2.5-2-4.5 0-2.1.8-3.8 2.4-5.1 1.6-1.3 3.8-1.9 6.6-1.9 3 0 5.4.7 7.1 2 1.7 1.3 2.6 3.2 2.6 5.6h-4.7c0-1.3-.4-2.3-1.2-3-.8-.7-2-1.1-3.6-1.1-1.4 0-2.6.3-3.4.9-.8.6-1.3 1.3-1.3 2.3 0 .9.4 1.6 1.1 2.1.7.5 2 1 3.9 1.4 2.6.6 4.5 1.4 5.9 2.4 1.4 1.1 2.1 2.7 2.1 4.8 0 2.2-.9 4-2.5 5.3-1.8 1.3-4.1 1.9-7.2 1.9zM69.5 82.4c-3.4 0-6.3-1-8.5-3-2.2-2-3.4-4.8-3.4-8.3V58.2h4.9v12.9c0 2.2.6 3.9 1.8 5 1.2 1.2 2.9 1.7 5.1 1.7 2.2 0 3.9-.6 5.1-1.7 1.2-1.2 1.8-2.8 1.8-5V58.2h4.9v12.9c0 3.5-1.1 6.3-3.4 8.3-2.1 2-5 3-8.3 3zM97.6 74.2v4.2H83.8V54.2h4.9v20h8.9z"/>
  </g>
</svg>