<svg xmlns="http://www.w3.org/2000/svg" viewBox="0 0 128 128">
  <linearGradient id="a" x1="109.7" y1="30.4" x2="44.9" y2="124.1" gradientUnits="userSpaceOnUse">
    <stop offset="0" stop-color="#fa7850"/>
    <stop offset="1" stop-color="#f9264d"/>
  </linearGradient>
  <path fill="url(#a)" d="M126.3 95.8c1.4-5.6 2.2-11.9 2-18.8-.3-12.8-3.5-24.2-9.3-34.3-.4-.7-.8-1.3-1.3-2-16.3 11.3-34.2 17.7-51.2 19.8 9.2 8.4 17.8 14.7 18.3 15.1.8.6.1 1.8-.7 1.4-1.2-.6-12-7-23.7-17.3-5.3 3.6-13.3 6.5-24.1 6.5-13.1 0-20.1-3.8-23.3-7.5-.6-.6-.5-1.4.2-1.8 8.5-6.1 23.8-11.5 41.1-12.1-33.6-33.5-45.5-61.6-45.5-61.6C8.7-16.8 42.4 18.4 66 40c4.4 3.6 8.2 6.6 11.1 9-3.8-1.5-16.2-7.1-36.2-15.6l-.1-.1c-.4-.2-.5-.7-.1-1C56.7 21.7 78.8 36.8 78.8 36.8c.1 0 .1.1.1.1.6.4 1.2.8 1.7 1.2C97.2 50.4 113.9 62.1 126 71c1.3-4.9 1.5-8.3 1.5-8.3.4 11.4-1.2 21.3-3.7 29.9 0 0 0 .1-.1.1-1.9 6.5-4.6 12.4-7.9 17.6 0 0 0 .1-.1.1C99.6 136.9 69.8 128 69.8 128c14.8-2.7 27.2-9.9 36.9-18.8-6.5 7-14.4 12.8-23.2 17.1l-.6.3c-17.3 7.7-32.1 5.7-39.2 3.3 0 0 2.1.9 6.1 1.7 9.9 2 33.6 3.4 58.7-17.8 2.3-2.6 4.2-5.3 5.7-8 5.3-7 9-14.3 12.1-22.6v-.1c2.9-7.1 3.7-10.4 3.7-10.4-.5 4.4-1.5 9.3-2.9 14.2.2-.4.2-.8.2-1.1z"/>
</svg>